<svg width="129" height="40" viewBox="0 0 129 40" fill="none" xmlns="http://www.w3.org/2000/svg">
<path d="M13.184 30.52C11.8667 30.52 10.7573 30.3293 9.856 29.948C8.98933 29.532 8.27867 29.0467 7.724 28.492C7.204 27.9373 6.80533 27.4347 6.528 26.984C6.28533 26.5333 6.14667 26.2733 6.112 26.204H6.008V39.516H0.548V8.628H5.176L6.06 13.308H6.164C6.19867 13.204 6.32 12.9093 6.528 12.424C6.77067 11.9387 7.13467 11.4013 7.62 10.812C8.14 10.2227 8.85067 9.72 9.752 9.304C10.6533 8.85333 11.78 8.628 13.132 8.628C16.3213 8.628 18.6093 9.65067 19.996 11.696C21.3827 13.7413 22.076 16.4107 22.076 19.704C22.076 22.9973 21.3653 25.632 19.944 27.608C18.5227 29.5493 16.2693 30.52 13.184 30.52ZM11.572 26.048C13.028 26.048 14.1373 25.7533 14.9 25.164C15.6973 24.54 16.2347 23.7427 16.512 22.772C16.824 21.7667 16.98 20.7267 16.98 19.652C16.98 18.5773 16.8067 17.572 16.46 16.636C16.148 15.6653 15.5933 14.8853 14.796 14.296C13.9987 13.672 12.8893 13.36 11.468 13.36C9.52667 13.36 8.14 13.9667 7.308 15.18C6.476 16.3587 6.06 17.8493 6.06 19.652C6.06 21.524 6.49333 23.0667 7.36 24.28C8.22667 25.4587 9.63067 26.048 11.572 26.048ZM32.8498 30.52C29.9031 30.52 27.8058 29.5147 26.5578 27.504C25.3098 25.4933 24.6858 22.8587 24.6858 19.6C24.6858 16.3067 25.3098 13.6547 26.5578 11.644C27.8404 9.59867 29.9378 8.576 32.8498 8.576C34.5138 8.576 35.8311 8.87067 36.8018 9.46C37.7724 10.0147 38.5004 10.6387 38.9858 11.332C39.4711 12.0253 39.7658 12.5453 39.8698 12.892H39.9738V8.628H45.4338V30H40.8578L39.9738 26.516H39.8698C39.7658 26.828 39.4538 27.3133 38.9338 27.972C38.4484 28.596 37.7031 29.1853 36.6978 29.74C35.7271 30.26 34.4444 30.52 32.8498 30.52ZM35.0338 26.048C36.9751 26.048 38.2751 25.4413 38.9338 24.228C39.6271 22.98 39.9738 21.4547 39.9738 19.652C39.9738 17.7453 39.6271 16.2027 38.9338 15.024C38.2404 13.8453 36.9404 13.256 35.0338 13.256C33.6818 13.256 32.6244 13.5507 31.8618 14.14C31.1338 14.7293 30.6138 15.5093 30.3018 16.48C30.0244 17.416 29.8858 18.4733 29.8858 19.652C29.8858 20.8307 30.0244 21.9053 30.3018 22.876C30.6138 23.8467 31.1338 24.6267 31.8618 25.216C32.6244 25.7707 33.6818 26.048 35.0338 26.048ZM49.6523 30V0.723999H54.8523V30H49.6523ZM66.6193 30.52C63.6726 30.52 61.5753 29.5147 60.3273 27.504C59.0793 25.4933 58.4553 22.8587 58.4553 19.6C58.4553 16.3067 59.0793 13.6547 60.3273 11.644C61.6099 9.59867 63.7073 8.576 66.6193 8.576C68.2833 8.576 69.6006 8.87067 70.5713 9.46C71.5419 10.0147 72.2699 10.6387 72.7553 11.332C73.2406 12.0253 73.5353 12.5453 73.6393 12.892H73.7433V8.628H79.2033V30H74.6273L73.7433 26.516H73.6393C73.5353 26.828 73.2233 27.3133 72.7033 27.972C72.2179 28.596 71.4726 29.1853 70.4673 29.74C69.4966 30.26 68.2139 30.52 66.6193 30.52ZM68.8033 26.048C70.7446 26.048 72.0446 25.4413 72.7033 24.228C73.3966 22.98 73.7433 21.4547 73.7433 19.652C73.7433 17.7453 73.3966 16.2027 72.7033 15.024C72.0099 13.8453 70.7099 13.256 68.8033 13.256C67.4513 13.256 66.3939 13.5507 65.6313 14.14C64.9033 14.7293 64.3833 15.5093 64.0713 16.48C63.7939 17.416 63.6553 18.4733 63.6553 19.652C63.6553 20.8307 63.7939 21.9053 64.0713 22.876C64.3833 23.8467 64.9033 24.6267 65.6313 25.216C66.3939 25.7707 67.4513 26.048 68.8033 26.048ZM89.8698 30C88.1711 30 86.8884 29.584 86.0218 28.752C85.1898 27.92 84.7738 26.568 84.7738 24.696V12.372H81.5498V8.628C82.5551 8.628 83.3351 8.524 83.8898 8.316C84.4444 8.108 84.8431 7.62267 85.0858 6.86C85.3284 6.09733 85.4498 4.86667 85.4498 3.168H89.7138V8.628H94.6018V12.372H89.7138V25.84H94.7058V30H89.8698ZM108.322 30.52C105.861 30.52 103.85 30 102.29 28.96C100.765 27.8853 99.6207 26.5333 98.8581 24.904C98.1301 23.24 97.7487 21.4893 97.7141 19.652C97.6794 17.5027 98.0781 15.596 98.9101 13.932C99.7767 12.2333 100.99 10.916 102.55 9.98C104.145 9.00933 106.017 8.524 108.166 8.524C110.073 8.524 111.771 8.94 113.262 9.772C114.787 10.604 116.001 11.7827 116.902 13.308C117.803 14.7987 118.271 16.5667 118.306 18.612C118.306 18.6813 118.306 18.872 118.306 19.184C118.306 19.496 118.306 19.756 118.306 19.964H102.758C102.758 21.94 103.243 23.4653 104.214 24.54C105.185 25.58 106.519 26.1 108.218 26.1C109.535 26.1 110.627 25.7707 111.494 25.112C112.395 24.4533 112.933 23.5867 113.106 22.512H118.254C118.011 24.7653 117.041 26.672 115.342 28.232C113.643 29.7573 111.303 30.52 108.322 30.52ZM102.914 17.572H113.002C112.967 17.3293 112.881 16.948 112.742 16.428C112.638 15.908 112.413 15.3707 112.066 14.816C111.754 14.2613 111.269 13.7933 110.61 13.412C109.951 13.0307 109.102 12.84 108.062 12.84C106.675 12.84 105.618 13.1347 104.89 13.724C104.197 14.2787 103.694 14.9373 103.382 15.7C103.105 16.428 102.949 17.052 102.914 17.572ZM125.426 30C124.143 30 123.294 29.688 122.878 29.064C122.462 28.44 122.254 27.6773 122.254 26.776C122.254 25.944 122.462 25.216 122.878 24.592C123.328 23.968 124.178 23.656 125.426 23.656C126.604 23.656 127.402 23.968 127.818 24.592C128.268 25.216 128.494 25.944 128.494 26.776C128.494 27.6773 128.268 28.44 127.818 29.064C127.402 29.688 126.604 30 125.426 30Z" fill="white"/>
</svg>
